<svg version="1.1" id="Layer_1" xmlns="http://www.w3.org/2000/svg" xmlns:xlink="http://www.w3.org/1999/xlink" x="0px" y="0px"
	 width="100%" viewBox="0 0 1024 1024" enable-background="new 0 0 1024 1024" xml:space="preserve">
<path fill="#000000" opacity="1.000000" stroke="none" 
	d="
M705.000000,1025.000000 
	C470.000000,1025.000000 235.500000,1025.000000 1.000000,1025.000000 
	C1.000000,683.666687 1.000000,342.333344 1.000000,1.000000 
	C342.333344,1.000000 683.666687,1.000000 1025.000000,1.000000 
	C1025.000000,342.333344 1025.000000,683.666687 1025.000000,1025.000000 
	C918.500000,1025.000000 812.000000,1025.000000 705.000000,1025.000000 
M119.503128,974.000000 
	C387.222565,974.000000 654.942017,974.000000 922.998840,974.000000 
	C922.998840,970.851807 922.998840,968.695801 922.998840,966.539734 
	C922.998901,919.541809 923.109558,872.543457 922.909729,825.546387 
	C922.867615,815.642395 922.211365,805.674744 920.927917,795.855347 
	C917.608704,770.460510 908.487488,746.943604 895.407349,725.119446 
	C880.253113,699.834778 861.290894,677.732483 838.504639,658.773010 
	C818.831787,642.404236 797.551270,628.681335 774.895447,617.043213 
	C749.988159,604.248596 723.837219,594.506958 696.891113,586.927917 
	C663.637268,577.574646 629.850464,570.929688 595.411133,568.044861 
	C574.976379,566.333069 554.498474,564.683899 534.011108,564.181274 
	C513.745667,563.684021 493.433807,564.373474 473.161621,565.088928 
	C457.454468,565.643372 441.682343,566.288696 426.110107,568.250793 
	C406.177917,570.762329 386.351501,574.285706 366.597107,577.998657 
	C329.112183,585.044312 293.108459,596.909180 258.656830,613.233459 
	C235.773026,624.076416 214.378876,637.460388 194.398422,653.083984 
	C178.267059,665.697937 163.596527,679.845154 150.845810,695.805237 
	C132.143188,719.215271 117.219688,744.874146 109.665787,774.087219 
	C106.381264,786.789307 103.478516,800.001099 103.296272,813.021912 
	C102.575638,864.509521 103.001083,916.013184 103.001526,967.510864 
	C103.001541,969.457275 103.001526,971.403748 103.001526,974.000000 
	C108.604935,974.000000 113.555191,974.000000 119.503128,974.000000 
M282.999481,301.531403 
	C283.656982,307.097290 284.226868,312.675232 284.987518,318.226959 
	C287.968353,339.983795 294.658722,360.630829 303.824036,380.519440 
	C313.426605,401.356964 326.327728,419.915955 341.443237,437.188477 
	C354.215820,451.783722 368.873047,464.076294 384.771454,474.788818 
	C404.269958,487.927094 425.226410,498.572510 448.276276,504.007141 
	C463.796051,507.666412 479.513184,511.148712 495.337677,512.654663 
	C508.968048,513.951782 522.984985,513.308411 536.630249,511.757080 
	C551.621887,510.052612 566.684814,507.382904 581.178345,503.247223 
	C605.440430,496.324158 627.673584,484.732819 648.196228,469.945526 
	C667.949219,455.712799 684.937561,438.745300 699.338623,419.130127 
	C715.325684,397.354767 726.916138,373.423004 734.673523,347.598694 
	C740.018860,329.804047 742.998962,311.511383 743.754944,293.041229 
	C744.274170,280.354980 743.057312,267.550232 741.959106,254.855347 
	C739.893372,230.976685 733.106262,208.227692 723.159180,186.559494 
	C708.681824,155.022537 687.991211,128.125244 661.356140,105.687309 
	C643.093445,90.302475 622.983215,78.168121 601.031433,69.075134 
	C574.378967,58.034996 546.599915,51.757481 517.668945,52.138145 
	C503.483734,52.324787 489.258118,53.453922 475.157532,55.081242 
	C455.687469,57.328228 437.128571,63.397705 419.334595,71.427330 
	C399.380066,80.431877 380.377899,91.236809 364.272919,106.305351 
	C353.316071,116.557060 342.010864,126.678902 332.578003,138.257309 
	C319.982178,153.718018 309.789825,170.886536 301.711212,189.347992 
	C289.413727,217.450684 283.078552,246.742157 282.087585,277.252228 
	C281.835419,285.015808 282.665436,292.814514 282.999481,301.531403 
z"/>
<path fill="#54595D" opacity="1.000000" stroke="none" 
	d="
M119.004288,974.000000 
	C113.555191,974.000000 108.604935,974.000000 103.001526,974.000000 
	C103.001526,971.403748 103.001541,969.457275 103.001526,967.510864 
	C103.001083,916.013184 102.575638,864.509521 103.296272,813.021912 
	C103.478516,800.001099 106.381264,786.789307 109.665787,774.087219 
	C117.219688,744.874146 132.143188,719.215271 150.845810,695.805237 
	C163.596527,679.845154 178.267059,665.697937 194.398422,653.083984 
	C214.378876,637.460388 235.773026,624.076416 258.656830,613.233459 
	C293.108459,596.909180 329.112183,585.044312 366.597107,577.998657 
	C386.351501,574.285706 406.177917,570.762329 426.110107,568.250793 
	C441.682343,566.288696 457.454468,565.643372 473.161621,565.088928 
	C493.433807,564.373474 513.745667,563.684021 534.011108,564.181274 
	C554.498474,564.683899 574.976379,566.333069 595.411133,568.044861 
	C629.850464,570.929688 663.637268,577.574646 696.891113,586.927917 
	C723.837219,594.506958 749.988159,604.248596 774.895447,617.043213 
	C797.551270,628.681335 818.831787,642.404236 838.504639,658.773010 
	C861.290894,677.732483 880.253113,699.834778 895.407349,725.119446 
	C908.487488,746.943604 917.608704,770.460510 920.927917,795.855347 
	C922.211365,805.674744 922.867615,815.642395 922.909729,825.546387 
	C923.109558,872.543457 922.998901,919.541809 922.998840,966.539734 
	C922.998840,968.695801 922.998840,970.851807 922.998840,974.000000 
	C654.942017,974.000000 387.222565,974.000000 119.004288,974.000000 
z"/>
<path fill="#54595D" opacity="1.000000" stroke="none" 
	d="
M282.998840,301.064240 
	C282.665436,292.814514 281.835419,285.015808 282.087585,277.252228 
	C283.078552,246.742157 289.413727,217.450684 301.711212,189.347992 
	C309.789825,170.886536 319.982178,153.718018 332.578003,138.257309 
	C342.010864,126.678902 353.316071,116.557060 364.272919,106.305351 
	C380.377899,91.236809 399.380066,80.431877 419.334595,71.427330 
	C437.128571,63.397705 455.687469,57.328228 475.157532,55.081242 
	C489.258118,53.453922 503.483734,52.324787 517.668945,52.138145 
	C546.599915,51.757481 574.378967,58.034996 601.031433,69.075134 
	C622.983215,78.168121 643.093445,90.302475 661.356140,105.687309 
	C687.991211,128.125244 708.681824,155.022537 723.159180,186.559494 
	C733.106262,208.227692 739.893372,230.976685 741.959106,254.855347 
	C743.057312,267.550232 744.274170,280.354980 743.754944,293.041229 
	C742.998962,311.511383 740.018860,329.804047 734.673523,347.598694 
	C726.916138,373.423004 715.325684,397.354767 699.338623,419.130127 
	C684.937561,438.745300 667.949219,455.712799 648.196228,469.945526 
	C627.673584,484.732819 605.440430,496.324158 581.178345,503.247223 
	C566.684814,507.382904 551.621887,510.052612 536.630249,511.757080 
	C522.984985,513.308411 508.968048,513.951782 495.337677,512.654663 
	C479.513184,511.148712 463.796051,507.666412 448.276276,504.007141 
	C425.226410,498.572510 404.269958,487.927094 384.771454,474.788818 
	C368.873047,464.076294 354.215820,451.783722 341.443237,437.188477 
	C326.327728,419.915955 313.426605,401.356964 303.824036,380.519440 
	C294.658722,360.630829 287.968353,339.983795 284.987518,318.226959 
	C284.226868,312.675232 283.656982,307.097290 282.998840,301.064240 
z"/>
</svg>